<?xml version="1.0" encoding="UTF-8"?>
<svg version="1.1" viewBox="0 0 420 80" xml:space="preserve" xmlns="http://www.w3.org/2000/svg">
	<style type="text/css">
		.blue{fill:#005288;}
		.green{fill:#008A5E;}
	</style>
	<path class="blue" d="m22.1 73.4c-6.5 0-10.9-1.1-13.2-3.3s-3.4-6.4-3.4-12.5v-13.8l15.7-3v20.1h30.5v-54.3h15.6v51.1c0 6.1-1.2 10.3-3.5 12.5s-6.7 3.3-13.1 3.3l-28.6-0.1z"/>
	<polygon class="blue" points="136.4 6.6 121.4 6.6 83.7 73.4 99.1 73.4 128.4 19.5 157.3 73.4 174.7 73.4"/>
	<path class="blue" d="m196.2 73.4v-66.8h57.2c5.3 0 9.1 1 11.5 3.1s3.6 5.4 3.6 9.9v8.1c0 3.2-1 5.8-3 7.7s-4.8 3.1-8.5 3.6c3.8 0.5 6.8 1.9 8.9 4.1s3.1 5.2 3.1 8.7v8.6c0 4.4-1.6 7.7-4.9 9.9s-8.2 3.2-14.9 3.2h-53v-0.1zm50.8-55.9h-35.4v15.9h35.4c2.7 0 4.6-0.4 5.6-1.1s1.5-1.9 1.5-3.7v-6.3c0-1.7-0.5-2.9-1.5-3.7-1.1-0.7-2.9-1.1-5.6-1.1m0 26.9h-35.4v17.1h35.4c3 0 5-0.4 6-1.3s1.6-2.5 1.6-4.7v-5.1c0-2.2-0.5-3.8-1.6-4.7s-3.1-1.3-6-1.3"/>
	<rect class="blue" x="299" y="6.6" width="15.6" height="66.8"/>
	<polygon class="blue" points="414.5 73.4 348.7 73.4 348.7 6.6 364.3 6.6 364.3 60.9 414.5 60.9"/>
	<polygon class="green" points="202.6 37.3 118.8 37.2 105 62.6"/>
</svg>
